<svg width="61" height="60" viewBox="0 0 61 60" fill="none" xmlns="http://www.w3.org/2000/svg">
<g id="Frame 87">
<rect x="0.5" width="60" height="60" rx="10" fill="url(#paint0_linear_626_790)"/>
<path id="Vector" d="M27.5998 25.8473C28.9447 25.8473 30.2593 25.4412 31.3776 24.6804C32.4958 23.9196 33.3674 22.8383 33.882 21.5732C34.3967 20.3081 34.5314 18.916 34.269 17.5729C34.0066 16.2298 33.359 14.9962 32.408 14.0279C31.457 13.0596 30.2454 12.4002 28.9264 12.133C27.6073 11.8659 26.2401 12.003 24.9976 12.527C23.755 13.0511 22.6931 13.9385 21.9459 15.0771C21.1987 16.2157 20.7999 17.5543 20.7999 18.9236C20.7999 20.7599 21.5163 22.5209 22.7915 23.8194C24.0668 25.1178 25.7963 25.8473 27.5998 25.8473ZM27.5998 14.7695C28.4067 14.7695 29.1955 15.0131 29.8665 15.4696C30.5374 15.926 31.0603 16.5748 31.3691 17.3339C31.6779 18.093 31.7587 18.9282 31.6013 19.7341C31.4439 20.5399 31.0553 21.2801 30.4847 21.8611C29.9141 22.4421 29.1872 22.8377 28.3957 22.998C27.6043 23.1583 26.784 23.076 26.0384 22.7616C25.2929 22.4472 24.6557 21.9147 24.2074 21.2316C23.7591 20.5484 23.5198 19.7453 23.5198 18.9236C23.5198 17.8219 23.9497 16.7652 24.7148 15.9862C25.48 15.2071 26.5177 14.7695 27.5998 14.7695ZM46.9658 31.3862L41.5259 30.0014C41.3116 29.9475 41.0875 29.9475 40.8731 30.0014L38.4116 30.6246C36.9177 29.317 35.0096 28.6038 33.0397 28.6167H22.1599C19.9957 28.6167 17.9202 29.4921 16.39 31.0502C14.8597 32.6083 14 34.7216 14 36.9251V41.0793C14 41.4465 14.1433 41.7987 14.3983 42.0584C14.6534 42.3181 14.9993 42.464 15.36 42.464H34.6444C35.7324 45.5519 40.0844 47.629 40.6419 47.8783C40.8173 47.9585 41.0073 48 41.1995 48C41.3918 48 41.5818 47.9585 41.7571 47.8783C42.3963 47.5875 47.9994 44.9288 47.9994 41.0793V32.7709C48.0085 32.4546 47.9108 32.1446 47.7228 31.8927C47.5347 31.6407 47.2676 31.462 46.9658 31.3862ZM16.72 36.9251C16.72 35.4561 17.2931 34.0472 18.3133 33.0085C19.3334 31.9697 20.7171 31.3862 22.1599 31.3862H33.0397C33.6675 31.3974 34.2887 31.5192 34.8756 31.7462C34.7298 31.8731 34.612 32.0301 34.53 32.2067C34.4479 32.3833 34.4035 32.5756 34.3997 32.7709V39.6945H16.72V36.9251ZM45.2795 41.0793C45.2795 42.464 43.0219 44.1257 41.1995 45.0811C39.3772 44.1257 37.1196 42.464 37.1196 41.0793V33.851L41.1995 32.7709L45.2795 33.8094V41.0793Z" fill="black"/>
</g>
<defs>
<linearGradient id="paint0_linear_626_790" x1="50.6" y1="7.2" x2="9.2" y2="51.3" gradientUnits="userSpaceOnUse">
<stop stop-color="#FFDF00"/>
<stop offset="1" stop-color="#E8AD1C"/>
</linearGradient>
</defs>
</svg>
