<svg width="61" height="60" viewBox="0 0 61 60" fill="none" xmlns="http://www.w3.org/2000/svg">
<g id="Icon">
<rect x="0.5" width="60" height="60" rx="10" fill="url(#paint0_linear_626_796)"/>
<g id="Group 81">
<path id="Vector" d="M33.2904 24.3708C33.2904 22.9159 32.1001 21.7256 30.6452 21.7256C29.1903 21.7256 28 22.9159 28 24.3708V27.016H33.2904V24.3708Z" fill="black"/>
<path id="Vector_2" d="M15 18.9021V29.1971C15 39.878 20.6833 43.0952 28.4333 47.4705L29.8542 48.2426C30.1125 48.5 30.2417 48.5 30.5 48.5C30.7583 48.5 30.8875 48.5 31.1458 48.3713L32.5667 47.5992C40.3167 43.0952 46 39.878 46 29.1971V18.9021C46 18.3874 45.6125 17.8727 45.0958 17.744L30.8875 12.5965C30.6292 12.4678 30.2417 12.4678 29.9833 12.5965L15.775 17.744C15.3875 17.8727 15 18.3874 15 18.9021ZM22.75 30.4839C22.75 28.811 23.7833 27.3954 25.3333 26.8807V24.0496C25.3333 21.2185 27.6583 18.9021 30.5 18.9021C33.3417 18.9021 35.6667 21.2185 35.6667 24.0496V26.8807C37.2167 27.3954 38.25 28.811 38.25 30.4839V34.3445C38.25 38.5912 34.7625 42.0657 30.5 42.0657C26.2375 42.0657 22.75 38.5912 22.75 34.3445V30.4839Z" fill="black"/>
<path id="Vector_3" d="M30.3226 30.9834C29.529 30.9834 29 31.5124 29 32.306V34.9512C29 35.7448 29.529 36.2738 30.3226 36.2738C31.1162 36.2738 31.6452 35.7448 31.6452 34.9512V32.306C31.6452 31.5124 31.1162 30.9834 30.3226 30.9834Z" fill="black"/>
</g>
</g>
<defs>
<linearGradient id="paint0_linear_626_796" x1="50.6" y1="7.2" x2="9.2" y2="51.3" gradientUnits="userSpaceOnUse">
<stop stop-color="#FFDF00"/>
<stop offset="1" stop-color="#E8AD1C"/>
</linearGradient>
</defs>
</svg>
